<?xml version="1.0" standalone="no"?>
<!DOCTYPE svg PUBLIC "-//W3C//DTD SVG 20010904//EN"
 "http://www.w3.org/TR/2001/REC-SVG-20010904/DTD/svg10.dtd">
<svg version="1.0" xmlns="http://www.w3.org/2000/svg"
 width="1394.000000pt" height="1394.000000pt" viewBox="0 0 1394.000000 1394.000000"
 preserveAspectRatio="xMidYMid meet">
<metadata>
Created by potrace 1.11, written by Peter Selinger 2001-2013
</metadata>
<g transform="translate(0.000000,1394.000000) scale(0.100000,-0.100000)"
fill="#000000" stroke="none">
<path d="M6847 11509 c-9 -6 -17 -7 -17 -3 0 3 -8 0 -17 -7 -11 -10 -14 -10
-9 -1 4 6 3 12 -3 12 -5 0 -13 -5 -17 -11 -4 -8 -9 -7 -15 2 -7 11 -9 11 -9 1
0 -8 -5 -10 -12 -6 -15 9 -67 13 -66 5 2 -19 -4 -24 -12 -11 -5 8 -10 10 -10
5 0 -6 -17 -9 -41 -7 -29 3 -40 1 -35 -7 5 -7 1 -9 -8 -5 -10 4 -16 1 -16 -7
0 -8 -5 -6 -13 6 -9 12 -16 14 -21 7 -4 -6 -13 -9 -21 -5 -8 3 -15 0 -15 -5 0
-6 -12 -9 -26 -6 -18 3 -23 1 -18 -7 5 -8 3 -9 -7 -3 -19 12 -40 14 -34 4 10
-16 -30 -17 -48 -1 -16 14 -17 13 -11 -4 5 -13 4 -16 -5 -10 -8 4 -17 2 -22
-6 -7 -12 -9 -12 -9 0 0 9 -4 10 -12 4 -7 -6 -20 -11 -28 -11 -24 -1 -44 -7
-59 -16 -11 -7 -12 -6 -6 5 7 12 6 12 -7 1 -8 -7 -24 -9 -33 -5 -13 4 -16 3
-11 -5 10 -16 -7 -15 -23 1 -10 10 -12 9 -9 -2 2 -9 -6 -15 -22 -16 -37 -3
-54 -9 -62 -20 -5 -6 -8 -4 -8 5 0 11 -3 12 -8 3 -4 -6 -19 -13 -34 -15 -15
-2 -30 -7 -34 -10 -3 -4 -12 -4 -20 -1 -8 3 -22 -3 -30 -13 -9 -11 -12 -13 -8
-5 5 10 3 12 -7 5 -8 -5 -25 -10 -39 -12 -13 -2 -30 -8 -37 -14 -7 -6 -13 -7
-13 -3 0 4 -7 2 -15 -5 -8 -7 -15 -9 -15 -5 0 4 -7 2 -15 -5 -8 -6 -19 -9 -25
-5 -5 3 -10 1 -10 -5 0 -6 -4 -9 -9 -5 -5 3 -12 1 -16 -5 -4 -6 -10 -8 -15 -5
-5 3 -11 1 -15 -4 -3 -6 -13 -7 -22 -4 -12 5 -15 2 -11 -8 4 -11 -3 -14 -32
-14 -21 0 -38 -4 -37 -9 2 -9 -2 -11 -34 -15 -5 0 -7 -5 -4 -11 3 -5 0 -7 -8
-4 -8 3 -18 0 -22 -6 -6 -9 -10 -9 -16 1 -7 11 -9 10 -9 -4 0 -10 -4 -16 -9
-12 -5 3 -12 1 -16 -5 -9 -15 -27 -12 -20 3 4 6 -3 1 -15 -13 -12 -14 -19 -19
-15 -13 3 8 -6 6 -24 -4 -16 -10 -27 -22 -24 -28 3 -5 0 -5 -7 2 -11 10 -16 9
-27 -5 -8 -9 -11 -11 -8 -4 6 11 3 11 -14 0 -12 -7 -21 -17 -21 -22 0 -4 -7
-3 -16 4 -8 8 -14 9 -12 4 2 -5 0 -9 -3 -9 -4 0 -16 -8 -26 -18 -11 -9 -23
-14 -26 -10 -4 3 -7 1 -7 -6 0 -7 -4 -10 -9 -6 -6 3 -14 -3 -20 -12 -7 -13
-10 -14 -11 -4 0 10 -6 7 -19 -7 -20 -24 -36 -29 -26 -9 4 6 1 5 -7 -4 -7 -9
-19 -14 -27 -11 -8 3 -11 0 -7 -6 6 -9 -11 -21 -26 -18 -4 0 -14 -8 -23 -19
-9 -11 -14 -13 -10 -5 4 8 -2 4 -13 -9 -12 -15 -24 -21 -32 -16 -8 5 -11 4 -6
-3 5 -9 -16 -22 -44 -27 -15 -3 -69 -43 -64 -47 2 -3 -7 -8 -21 -12 -14 -4
-25 -11 -25 -17 0 -6 -4 -7 -10 -4 -5 3 -10 1 -10 -4 0 -6 -9 -11 -21 -11 -11
0 -17 -4 -14 -10 3 -5 0 -10 -8 -10 -8 0 -19 -10 -26 -22 -9 -19 -11 -19 -6
-3 5 19 4 19 -9 3 -7 -10 -18 -18 -25 -18 -6 0 -11 -4 -11 -10 0 -5 -6 -10
-14 -10 -7 0 -21 -10 -30 -22 -9 -13 -14 -16 -11 -8 4 8 -2 5 -13 -7 -11 -13
-25 -23 -31 -23 -6 0 -11 -3 -11 -8 0 -4 -10 -12 -22 -17 -13 -6 -22 -16 -21
-22 2 -7 -6 -10 -17 -8 -13 3 -17 -1 -13 -11 3 -9 -1 -14 -12 -14 -10 0 -28
-10 -40 -22 -30 -30 -75 -68 -75 -62 0 2 -13 -8 -30 -22 -16 -15 -27 -31 -24
-35 3 -5 -7 -11 -21 -15 -14 -3 -25 -13 -25 -21 0 -8 -5 -11 -10 -8 -6 3 -14
-4 -19 -17 -6 -13 -10 -20 -10 -16 -1 5 -21 -11 -45 -34 -24 -24 -42 -47 -38
-53 3 -5 -3 -3 -14 5 -10 8 -16 11 -12 6 4 -4 -11 -25 -33 -47 -21 -21 -39
-43 -39 -49 0 -9 -14 -14 -33 -11 -4 0 -6 -3 -5 -8 2 -5 -10 -20 -25 -35 -15
-14 -26 -30 -23 -35 3 -4 -5 -13 -18 -19 -14 -6 -27 -20 -31 -32 -3 -11 -9
-18 -13 -16 -4 2 -13 -2 -20 -10 -7 -8 -9 -14 -5 -14 4 0 -3 -7 -15 -16 -12
-8 -22 -22 -22 -30 0 -8 -8 -14 -17 -14 -9 0 -13 -3 -10 -6 11 -12 -14 -46
-29 -40 -8 3 -12 2 -9 -3 3 -5 -5 -17 -17 -27 -18 -13 -19 -15 -4 -10 16 5 17
4 6 -9 -7 -8 -17 -12 -23 -8 -6 4 -8 -2 -5 -15 4 -16 2 -19 -10 -15 -9 4 -13
2 -9 -4 8 -13 -17 -36 -27 -26 -4 4 -4 0 -1 -9 4 -9 0 -18 -10 -22 -9 -3 -14
-10 -11 -15 3 -5 -2 -15 -11 -22 -14 -12 -16 -12 -8 0 5 10 4 12 -4 7 -6 -4
-9 -12 -6 -17 4 -5 -1 -12 -9 -15 -9 -3 -14 -9 -11 -14 7 -11 -41 -71 -50 -62
-5 4 -5 2 -2 -5 4 -6 1 -18 -7 -26 -8 -8 -12 -17 -9 -21 4 -3 2 -6 -4 -6 -6 0
-18 -12 -28 -26 -12 -18 -13 -24 -4 -19 8 3 5 -1 -6 -10 -11 -9 -20 -20 -20
-26 0 -5 -7 -14 -15 -19 -8 -5 -11 -10 -6 -10 6 0 1 -7 -10 -16 -10 -8 -12
-12 -4 -8 13 7 13 6 0 -12 -8 -10 -21 -23 -27 -27 -7 -4 -13 -13 -13 -20 0 -7
4 -6 10 3 7 11 10 11 10 2 0 -7 -10 -17 -22 -22 -14 -5 -17 -9 -8 -10 12 0 11
-3 -3 -11 -9 -6 -15 -14 -12 -20 4 -5 1 -9 -4 -9 -6 0 -11 -7 -11 -15 0 -8 -4
-15 -10 -15 -5 0 -7 -7 -4 -15 4 -8 -1 -17 -10 -21 -9 -3 -14 -10 -11 -14 3
-5 1 -11 -5 -15 -5 -3 -10 -15 -10 -26 0 -11 -4 -17 -10 -14 -5 3 -10 -3 -10
-14 0 -12 -4 -21 -9 -21 -6 0 -8 -9 -6 -19 3 -15 0 -18 -12 -14 -12 5 -15 2
-10 -10 3 -9 2 -17 -3 -17 -5 0 -7 -6 -4 -13 2 -7 -6 -23 -20 -36 -16 -15 -22
-29 -18 -43 3 -14 1 -19 -6 -14 -8 5 -10 2 -6 -8 3 -9 2 -16 -4 -16 -6 0 -9
-11 -8 -25 2 -13 -1 -22 -5 -19 -17 10 -29 -6 -19 -26 7 -13 7 -21 -2 -26 -7
-5 -8 -3 -3 6 6 9 4 11 -4 6 -7 -5 -10 -14 -7 -22 3 -8 1 -14 -5 -14 -6 0 -7
-4 -4 -10 3 -5 1 -10 -5 -10 -6 0 -9 -3 -7 -8 3 -4 -3 -24 -13 -45 -12 -24
-14 -37 -7 -37 7 0 6 -4 -3 -10 -8 -5 -11 -10 -7 -10 4 0 2 -10 -5 -22 -6 -13
-13 -32 -15 -42 -2 -11 -7 -24 -12 -30 -4 -6 -18 -41 -31 -78 -13 -38 -27 -68
-31 -68 -4 0 -6 -12 -4 -27 4 -35 -4 -55 -18 -46 -6 4 -7 1 -1 -8 12 -20 14
-40 3 -33 -8 4 -14 -17 -10 -38 0 -5 -5 -8 -12 -8 -8 0 -7 -4 3 -10 13 -8 13
-11 1 -19 -8 -5 -11 -16 -8 -25 4 -9 2 -16 -4 -16 -6 0 -7 -4 -4 -10 3 -5 2
-10 -4 -10 -6 0 -8 -7 -5 -15 4 -8 2 -21 -3 -28 -5 -6 -8 -22 -7 -34 0 -13 -2
-23 -6 -23 -4 0 -7 -10 -6 -22 1 -13 -3 -26 -8 -30 -13 -9 -15 -48 -3 -48 5 0
4 -7 -3 -15 -7 -8 -9 -15 -4 -15 5 0 2 -5 -6 -10 -13 -9 -13 -11 0 -20 12 -8
12 -10 1 -10 -9 0 -12 -8 -9 -25 3 -14 2 -25 -2 -25 -3 0 -7 -12 -7 -27 -3
-68 -12 -118 -21 -116 -11 3 -4 -35 9 -42 4 -3 6 -12 3 -20 -4 -8 -11 -12 -16
-9 -6 4 -5 -4 2 -16 7 -12 8 -20 2 -16 -5 3 -12 -1 -16 -9 -3 -8 0 -15 6 -15
7 0 7 -4 -1 -13 -6 -8 -9 -16 -7 -18 9 -9 14 -59 6 -59 -4 0 -7 -11 -5 -25 1
-14 -3 -25 -9 -25 -6 0 -4 -5 4 -10 13 -9 13 -10 0 -10 -13 0 -13 -1 0 -10 13
-9 13 -10 0 -10 -11 -1 -10 -4 4 -15 17 -13 17 -15 4 -15 -14 0 -15 -5 -8 -30
6 -20 5 -30 -2 -30 -6 0 -6 -6 2 -15 10 -12 10 -15 -1 -15 -11 0 -11 -2 1 -10
13 -9 13 -10 0 -10 -13 0 -13 -1 0 -10 12 -8 12 -10 1 -10 -11 0 -11 -3 -1
-15 9 -11 9 -15 1 -15 -9 0 -9 -5 -1 -20 8 -15 8 -20 -2 -20 -9 0 -9 -3 2 -10
9 -6 11 -10 3 -10 -7 0 -10 -6 -8 -12 11 -31 12 -88 1 -88 -6 0 -4 -5 4 -10 8
-5 10 -10 5 -10 -6 0 -9 -19 -7 -45 3 -30 8 -43 16 -39 6 3 2 -2 -8 -10 -15
-12 -16 -16 -5 -16 11 0 12 -2 0 -9 -10 -6 -10 -10 -1 -16 6 -4 9 -13 6 -21
-3 -8 -1 -14 5 -14 6 0 6 -6 0 -18 -6 -11 -6 -24 0 -34 6 -11 6 -19 -1 -23 -6
-4 -7 -12 -3 -18 4 -7 9 -21 10 -31 2 -11 8 -25 14 -32 7 -8 7 -14 0 -19 -13
-7 -10 -55 2 -55 5 0 7 -8 4 -19 -2 -10 0 -25 5 -34 7 -13 5 -16 -9 -11 -17 5
-17 5 0 -9 10 -8 15 -21 11 -31 -4 -10 -1 -16 7 -16 11 0 11 -3 -1 -10 -8 -5
-10 -10 -3 -10 6 0 11 -15 11 -35 0 -20 5 -41 10 -48 7 -8 7 -18 2 -27 -5 -9
-5 -19 1 -26 6 -7 11 -29 12 -48 1 -24 6 -35 14 -32 7 3 10 -1 6 -9 -3 -8 -10
-12 -17 -8 -6 4 -4 -1 4 -12 8 -10 15 -25 16 -34 3 -36 17 -81 26 -81 7 0 7
-4 0 -13 -7 -8 -6 -18 4 -31 7 -10 11 -23 8 -27 -3 -5 0 -9 5 -9 13 0 10 -22
-4 -32 -6 -5 -5 -8 3 -8 7 0 10 -4 7 -10 -4 -6 1 -7 12 -3 15 6 16 4 5 -9 -9
-11 -9 -17 -2 -20 6 -2 12 -18 12 -36 1 -17 6 -32 12 -32 6 0 5 -4 -2 -9 -11
-7 -11 -9 2 -14 10 -4 13 -13 9 -23 -5 -12 -3 -15 6 -9 10 5 11 2 6 -14 -4
-12 -2 -21 4 -21 6 0 7 -7 4 -17 -4 -11 -3 -14 5 -9 7 4 12 2 12 -3 0 -6 -6
-11 -12 -11 -7 0 -5 -5 5 -11 9 -6 15 -14 12 -19 -3 -5 -1 -11 5 -15 6 -4 8
-11 4 -16 -3 -5 0 -17 7 -25 7 -9 15 -26 16 -37 2 -12 8 -23 13 -25 5 -2 6
-10 3 -18 -3 -8 0 -14 6 -14 6 0 8 -7 4 -17 -4 -11 -3 -14 5 -9 10 6 16 -25
11 -60 0 -4 3 -10 8 -13 7 -5 18 -24 67 -116 6 -11 13 -22 16 -25 13 -13 32
-60 33 -83 1 -14 5 -23 8 -21 8 5 23 -27 20 -43 -1 -8 5 -10 15 -6 14 5 15 3
4 -17 -8 -15 -8 -20 -1 -16 10 6 15 -6 12 -26 0 -5 7 -8 16 -8 15 0 16 -2 3
-10 -13 -8 -12 -10 3 -10 9 0 17 -7 17 -15 0 -8 6 -15 13 -15 8 0 7 -4 -3 -10
-10 -6 -11 -10 -2 -10 6 0 12 -7 12 -15 0 -8 5 -15 10 -15 6 0 10 -7 10 -15 0
-8 5 -15 10 -15 6 0 10 -9 10 -20 0 -11 7 -23 16 -27 8 -3 13 -12 10 -19 -3
-7 3 -19 12 -26 9 -7 18 -20 20 -28 2 -8 10 -22 18 -31 8 -8 14 -21 14 -27 0
-7 7 -12 16 -12 8 0 12 -4 9 -10 -3 -5 -1 -10 6 -10 7 0 9 -3 6 -7 -4 -3 1
-12 11 -20 11 -10 12 -12 2 -8 -8 4 -5 -3 8 -14 14 -12 20 -25 16 -32 -4 -8
-3 -9 4 -5 7 4 12 2 12 -4 0 -6 5 -8 13 -4 7 5 7 2 -2 -10 -12 -14 -12 -17 -1
-14 8 2 14 -4 15 -12 1 -8 6 -14 13 -13 6 2 14 -8 18 -22 3 -14 10 -22 15 -19
5 3 9 -2 9 -10 0 -9 5 -16 11 -16 5 0 8 -4 4 -9 -3 -5 4 -13 16 -16 17 -6 19
-9 8 -16 -11 -7 -10 -9 4 -9 9 0 17 -7 17 -15 0 -8 5 -15 10 -15 6 0 10 -7 10
-15 0 -8 7 -15 15 -15 9 0 12 -6 8 -17 -4 -9 -2 -14 3 -10 6 3 16 2 24 -4 10
-6 11 -9 3 -9 -7 0 2 -15 20 -33 18 -19 36 -31 41 -29 5 3 6 0 2 -7 -4 -6 0
-14 8 -17 9 -3 16 -12 16 -20 0 -8 5 -14 11 -14 5 0 8 -4 5 -9 -3 -5 4 -11 15
-14 12 -3 18 -10 15 -16 -4 -5 3 -12 14 -16 11 -3 20 -10 20 -14 0 -10 36 -52
47 -54 4 -1 7 -5 5 -9 -1 -5 3 -8 8 -8 15 0 60 -47 53 -54 -4 -3 1 -6 11 -6 9
0 14 -4 11 -10 -3 -5 -1 -10 5 -10 15 0 41 -26 33 -34 -4 -3 1 -6 10 -6 10 0
17 -7 17 -16 0 -8 4 -12 10 -9 6 3 10 1 10 -6 0 -7 3 -10 6 -6 8 7 34 -17 34
-32 0 -10 14 -15 34 -12 5 1 6 -5 3 -13 -4 -9 1 -17 14 -21 10 -4 19 -11 19
-16 0 -6 5 -7 10 -4 6 3 13 -1 16 -9 3 -9 11 -13 17 -9 5 3 7 1 4 -4 -8 -13
17 -36 27 -26 4 4 4 -1 0 -11 -5 -14 -4 -17 4 -12 13 8 56 -17 46 -26 -3 -3 7
-9 21 -12 19 -5 25 -11 21 -23 -6 -14 -4 -14 11 -2 10 8 14 9 10 2 -8 -12 30
-40 46 -35 5 1 6 -1 4 -5 -3 -5 1 -14 9 -21 8 -7 14 -9 14 -5 0 4 5 0 11 -10
5 -9 17 -17 24 -17 8 0 15 -4 15 -10 0 -5 6 -10 14 -10 8 0 17 -7 20 -16 4 -9
9 -14 12 -11 4 3 14 -2 23 -11 9 -10 14 -13 11 -7 -3 6 2 4 10 -5 8 -9 20 -18
25 -21 6 -2 9 -8 7 -12 -1 -5 2 -6 8 -2 5 3 10 1 10 -5 0 -6 5 -8 10 -5 6 3
13 0 16 -9 3 -9 12 -12 21 -9 10 4 14 2 9 -5 -6 -10 17 -23 37 -21 5 0 15 -8
23 -18 7 -10 14 -14 14 -9 0 6 6 1 14 -10 8 -10 19 -20 25 -20 6 -1 16 -2 22
-3 5 0 7 -6 4 -11 -4 -6 5 -10 20 -10 15 0 24 -4 20 -10 -3 -5 3 -10 15 -10
11 0 23 -7 27 -16 5 -13 7 -13 14 -2 7 10 9 9 9 -5 0 -10 5 -15 10 -12 6 3 10
1 10 -5 0 -6 4 -9 9 -6 5 4 12 0 14 -6 4 -10 6 -10 6 0 1 10 4 10 15 0 8 -7
12 -16 9 -20 -2 -4 2 -5 10 -2 8 3 20 -2 27 -11 7 -8 21 -15 31 -15 11 0 19
-5 19 -11 0 -5 4 -7 10 -4 5 3 17 -3 26 -14 9 -10 23 -17 29 -14 7 2 16 0 19
-6 4 -6 14 -7 23 -4 10 4 14 2 9 -5 -3 -6 -2 -13 4 -17 5 -3 10 -1 10 5 0 6 7
4 16 -5 9 -9 23 -14 31 -11 8 3 11 1 8 -4 -3 -6 1 -10 9 -10 9 0 16 -4 16 -9
0 -4 11 -7 25 -6 13 2 24 0 24 -3 -3 -20 3 -23 18 -11 11 10 14 10 9 2 -5 -9
0 -13 14 -13 14 0 19 -4 14 -12 -4 -7 -4 -10 1 -6 4 4 15 2 23 -5 13 -10 15
-9 8 3 -4 9 -2 8 7 -2 8 -10 17 -15 20 -11 4 3 15 -2 26 -11 13 -11 21 -14 26
-7 4 8 12 6 22 -4 9 -9 21 -14 29 -11 7 3 14 0 16 -5 2 -5 13 -11 26 -12 12 0
22 -5 22 -10 0 -4 5 -5 10 -2 6 3 10 2 10 -3 0 -6 10 -8 22 -4 16 4 19 2 13
-8 -6 -10 -4 -12 8 -7 10 4 17 2 17 -4 0 -7 10 -9 26 -5 19 5 24 4 18 -6 -5
-8 -1 -8 11 2 11 9 16 10 11 3 -7 -13 3 -17 37 -14 9 1 17 -3 17 -9 0 -6 5 -8
10 -5 6 3 10 1 10 -4 0 -6 5 -11 11 -11 6 0 7 6 2 13 -4 6 6 4 21 -7 23 -15
30 -16 37 -5 5 9 9 10 9 2 0 -12 55 -35 63 -26 3 2 15 0 26 -7 16 -8 21 -8 21
2 0 6 7 3 15 -8 11 -14 15 -16 15 -4 1 13 2 12 10 -1 6 -11 20 -16 39 -14 19
2 32 -3 36 -12 4 -13 8 -13 22 -2 20 17 16 17 38 -1 17 -13 18 -13 10 0 -8 12
-5 12 16 -1 19 -13 30 -14 43 -7 13 7 17 7 12 0 -3 -6 -2 -13 4 -17 5 -3 10
-2 10 3 0 6 14 7 37 2 20 -5 41 -7 45 -4 4 3 8 0 8 -7 0 -8 4 -8 15 1 12 10
15 10 15 -1 0 -11 2 -11 10 1 7 11 10 11 10 2 0 -7 5 -10 10 -7 6 3 10 2 10
-4 0 -6 7 -8 15 -5 9 4 15 0 15 -7 0 -11 2 -11 9 0 8 12 16 13 45 4 26 -8 36
-8 40 1 3 7 5 6 5 -3 1 -11 4 -11 18 0 11 10 14 10 9 2 -4 -7 -3 -13 3 -13 5
0 13 5 16 10 4 6 12 7 18 3 20 -12 37 -12 37 0 0 7 4 5 10 -3 8 -12 41 -15
189 -16 108 0 178 3 174 9 -3 5 2 6 13 0 11 -5 28 -8 39 -8 11 0 23 -4 27 -10
5 -6 8 -6 8 3 0 6 7 12 16 12 9 0 12 -5 8 -12 -5 -9 -2 -9 9 1 9 7 17 10 17 6
0 -4 6 -3 13 4 10 8 17 7 25 -1 9 -9 12 -9 12 1 0 7 5 9 10 6 6 -3 10 0 10 7
0 8 3 9 8 3 8 -12 27 -13 38 -3 4 4 14 3 21 -4 11 -9 16 -9 23 1 6 10 9 10 15
1 6 -9 9 -9 15 0 4 6 21 13 38 14 17 1 29 -2 26 -6 -3 -4 5 -6 18 -4 13 2 22
9 20 15 -2 13 20 10 31 -4 4 -6 10 -5 16 3 11 17 22 17 32 1 6 -10 10 -9 15 5
5 14 9 15 15 4 5 -7 9 -8 9 -2 0 6 13 9 31 6 24 -3 30 -1 24 8 -6 9 -3 10 12
2 11 -6 25 -7 33 -2 8 5 18 6 22 4 4 -3 8 3 8 12 0 16 1 16 16 -2 8 -10 12
-13 8 -5 -5 11 -3 13 9 8 10 -4 17 -1 17 6 0 8 3 8 9 -2 7 -11 11 -10 20 5 6
12 11 14 11 5 0 -11 3 -11 15 -1 8 7 15 9 15 5 0 -4 8 -1 17 6 15 12 16 12 8
-1 -6 -11 -4 -11 11 2 14 12 24 14 37 7 12 -7 17 -7 17 1 0 6 5 8 10 5 6 -3
16 -3 23 2 13 8 27 11 64 15 12 1 19 6 17 10 -3 4 5 8 18 8 13 0 30 6 37 13 8
6 11 7 8 1 -3 -6 0 -11 8 -11 8 0 12 4 10 8 -3 4 2 10 11 13 8 3 13 2 10 -2
-3 -5 1 -9 9 -9 8 0 12 4 10 8 -3 4 2 10 11 13 10 4 13 2 8 -7 -4 -6 1 -4 12
5 14 13 23 14 38 6 14 -8 17 -7 12 1 -7 11 5 15 33 12 7 -2 10 2 6 8 -3 6 0 9
8 5 8 -3 18 0 22 5 3 6 11 9 16 6 5 -4 9 -2 9 4 0 6 7 8 15 5 8 -4 15 -1 15 5
0 6 3 10 8 10 22 -4 42 2 37 11 -4 6 1 7 11 3 11 -4 15 -3 10 5 -4 8 3 8 25 2
26 -8 29 -7 19 5 -10 12 -8 13 9 10 12 -2 21 1 21 6 0 6 5 7 11 3 6 -3 24 4
41 16 16 12 32 19 35 16 3 -3 12 2 20 12 8 9 12 11 8 5 -4 -9 -1 -11 9 -7 9 3
16 10 16 14 0 5 9 7 20 5 11 -2 18 0 15 6 -4 5 6 9 20 9 14 0 24 4 21 9 -3 5
1 12 10 15 10 4 13 2 8 -7 -6 -9 -5 -9 8 0 8 7 19 9 23 5 5 -4 5 -2 2 4 -4 7
10 16 33 24 22 7 40 18 40 23 0 5 9 7 20 4 11 -3 18 0 17 7 -1 6 4 10 11 8 6
-1 12 2 12 8 0 5 9 10 19 10 11 0 23 5 26 10 4 6 11 7 17 4 7 -4 8 -2 4 4 -4
8 0 12 11 12 10 0 25 9 33 20 10 14 16 16 22 7 6 -9 8 -9 8 1 0 6 6 12 14 12
8 0 18 5 22 12 5 7 3 8 -6 3 -9 -5 -11 -4 -6 4 6 9 11 9 22 0 11 -9 14 -8 14
6 0 10 3 15 7 12 3 -4 12 1 20 11 9 10 12 11 7 2 -4 -8 8 -1 26 15 18 17 30
23 26 15 -4 -8 0 -6 8 4 12 15 16 16 16 5 1 -10 3 -9 11 4 5 9 17 17 24 17 8
0 15 5 15 11 0 5 -5 7 -12 3 -7 -5 -8 -3 -4 5 5 7 11 10 14 7 3 -3 12 0 20 7
13 10 15 9 8 -3 -7 -13 -6 -13 6 0 7 8 22 20 33 27 11 6 19 16 17 23 -1 6 2 9
7 6 5 -4 19 4 31 16 18 20 20 20 14 4 -5 -14 -4 -17 4 -12 7 4 12 14 12 23 0
9 6 13 15 9 9 -3 15 0 15 10 0 11 6 14 16 10 8 -3 13 -2 10 3 -6 10 23 26 39
22 6 -2 7 1 3 5 -8 7 61 60 74 56 4 -1 4 6 1 15 -4 10 -2 14 5 9 6 -3 24 7 41
23 16 16 32 26 35 23 3 -3 6 2 6 11 0 9 5 17 11 17 5 0 7 -6 4 -12 -4 -7 0 -4
9 6 8 10 13 23 10 28 -3 5 -2 8 3 7 22 -4 33 3 33 19 0 11 3 13 8 6 5 -9 11
-8 20 2 7 8 9 14 5 14 -4 1 3 7 17 15 14 8 21 14 17 15 -4 0 -2 6 5 14 7 7 19
11 25 9 7 -3 13 2 13 12 0 9 4 14 9 11 8 -6 26 21 23 35 -1 4 6 6 16 5 9 0 16
4 15 9 0 6 5 16 13 23 8 7 14 11 14 8 0 -3 18 12 40 34 22 22 40 44 40 49 0 5
5 13 12 17 7 4 8 3 4 -4 -4 -7 -5 -12 -2 -12 3 0 12 14 21 30 9 17 22 30 31
30 9 0 12 5 8 12 -5 8 -2 9 10 5 9 -4 15 -3 12 2 -3 5 1 11 9 15 9 3 12 12 8
22 -5 13 -3 16 10 11 9 -3 16 -3 15 1 -3 16 15 41 25 35 6 -4 8 0 4 11 -4 9
-3 15 2 12 9 -6 57 54 53 67 -1 4 1 6 5 6 23 -4 31 3 28 22 -3 12 -2 19 1 16
7 -7 42 24 43 36 0 5 9 17 20 26 11 10 18 21 14 25 -3 3 -1 6 6 6 7 0 10 4 6
9 -3 5 4 12 15 16 11 3 19 9 18 13 -3 16 15 41 25 35 6 -4 8 2 5 15 -3 12 -3
21 1 20 19 -2 31 3 26 12 -3 6 -1 10 6 10 7 0 9 3 6 7 -4 3 2 13 13 20 11 8
18 19 15 24 -4 5 -1 9 5 9 6 0 9 3 7 7 -6 10 19 34 26 26 3 -3 3 5 0 18 -4 15
-3 20 5 15 7 -4 12 -1 12 7 0 8 7 18 16 21 9 4 14 9 10 13 -3 4 6 20 21 36 16
17 22 27 16 23 -7 -4 -13 -2 -13 3 0 6 8 11 18 11 13 0 14 2 4 9 -11 7 -10 9
3 15 9 3 14 10 11 15 -3 5 1 12 10 15 9 3 14 11 12 18 -2 6 9 24 24 40 31 32
38 48 11 27 -13 -11 -13 -8 2 12 11 15 24 24 29 21 5 -3 6 0 2 7 -5 7 0 21 11
33 12 15 13 19 3 14 -9 -5 -8 -2 2 7 10 8 15 17 11 20 -3 4 0 7 7 7 7 0 11 3
7 6 -3 4 1 13 9 21 8 8 12 19 9 24 -4 5 -1 9 5 9 7 0 10 7 6 15 -3 8 -1 15 5
15 6 0 8 3 6 8 -7 11 12 54 21 48 4 -2 9 5 9 16 1 12 7 24 13 28 7 4 12 10 12
13 0 19 12 47 19 47 5 0 9 8 9 18 0 9 7 25 15 35 7 11 11 25 8 33 -3 8 2 17
11 20 12 5 14 10 6 19 -7 8 -4 17 10 30 11 10 17 21 15 25 -7 11 5 41 14 35 4
-2 8 1 9 8 0 7 3 26 6 42 2 17 5 34 5 38 1 5 6 5 12 2 6 -4 10 -1 8 6 -3 25 1
40 10 35 4 -3 6 6 3 21 -3 18 -1 24 6 19 8 -4 10 -2 6 7 -3 8 -1 18 5 22 15 9
14 28 -1 19 -7 -4 -5 2 5 13 9 11 14 23 10 26 -3 4 2 14 13 22 19 15 19 15 -1
8 -19 -6 -19 -5 -4 13 23 27 30 52 16 58 -9 3 -9 5 1 5 6 1 12 8 12 16 0 8 6
15 13 15 9 0 8 3 -2 9 -9 6 -10 11 -3 15 6 4 8 14 5 23 -5 12 -3 14 7 8 9 -5
11 -4 6 4 -4 6 -2 19 6 28 11 14 11 16 -2 9 -11 -7 -11 -4 2 9 12 13 14 24 7
42 -5 14 -5 22 0 19 5 -3 12 1 15 10 4 10 2 13 -7 8 -9 -5 -9 -4 1 7 6 7 12
24 12 37 0 13 5 33 11 44 8 16 8 19 -1 13 -7 -4 -5 4 4 18 13 20 14 26 4 30
-9 4 -10 6 -1 6 7 1 10 8 7 16 -4 8 -2 15 4 15 12 0 11 18 -2 39 -6 8 -5 12 0
8 5 -3 14 6 21 19 6 13 7 21 2 18 -11 -7 -8 35 5 54 4 7 3 19 -4 27 -8 9 -8
15 0 20 6 4 10 14 9 23 -3 31 1 43 11 37 6 -3 10 -1 10 4 0 6 -5 11 -11 11 -6
0 -7 5 -2 13 4 6 6 19 5 28 -2 9 1 35 6 57 7 29 6 42 -2 46 -7 3 -7 5 2 5 10
1 10 6 2 21 -7 14 -7 20 0 20 5 0 10 5 10 11 0 5 -3 8 -7 6 -5 -3 -8 5 -8 18
0 13 3 21 7 19 4 -2 9 0 13 6 3 5 0 10 -7 10 -8 0 -9 3 -3 8 12 8 13 22 3 37
-4 6 -3 17 2 25 5 9 4 20 -3 29 -9 12 -9 13 1 7 6 -4 12 -3 12 3 0 5 -5 13
-10 16 -8 5 -8 11 0 20 8 9 8 15 0 20 -7 4 -7 13 1 27 8 15 8 19 0 14 -8 -5
-8 0 -1 18 5 15 6 28 0 31 -9 6 -6 37 5 55 3 6 0 10 -7 10 -8 0 -9 3 -3 8 12
8 13 22 2 40 -5 7 -4 12 3 12 6 0 8 4 5 10 -11 18 -14 51 -4 45 13 -9 11 9 -3
23 -7 7 -9 12 -5 12 3 0 2 11 -3 25 -5 14 -6 25 -2 25 9 0 7 64 -3 79 -3 6 -1
11 6 11 7 0 6 8 -4 24 -12 17 -13 26 -4 35 7 7 7 11 0 11 -5 0 -9 12 -7 27 1
15 -3 34 -9 42 -10 12 -9 13 3 7 8 -4 7 -1 -3 7 -13 11 -15 16 -5 20 11 4 11
8 0 27 -8 12 -9 19 -3 15 6 -3 11 -1 11 4 0 6 -5 11 -11 11 -6 0 -9 6 -6 14 3
7 0 19 -6 26 -9 10 -9 11 0 6 7 -4 11 1 10 13 0 11 -5 17 -9 15 -5 -3 -6 9 -3
26 4 22 2 29 -6 25 -8 -5 -9 -1 -5 13 4 11 2 23 -5 27 -8 6 -8 9 1 15 8 5 7
11 -4 23 -12 11 -13 17 -3 20 9 4 8 8 -3 16 -8 5 -14 25 -13 45 0 20 -4 36 -9
36 -5 0 -6 5 -3 10 4 6 1 18 -7 27 -7 10 -8 14 -1 10 7 -5 9 0 6 13 -3 11 -10
17 -17 13 -6 -4 -4 2 4 12 9 11 10 16 3 11 -10 -5 -13 2 -13 28 0 19 -4 37
-10 41 -5 3 -7 12 -4 19 3 7 -2 20 -10 29 -12 12 -13 17 -3 20 9 4 9 6 0 6 -7
1 -13 6 -13 12 0 5 6 7 13 4 6 -4 3 1 -8 10 -11 9 -19 25 -17 36 2 11 -2 28
-10 37 -11 13 -11 15 2 7 8 -4 6 1 -5 12 -13 14 -22 16 -27 9 -7 -10 -12 6 -9
27 0 4 -3 7 -8 7 -6 0 -8 9 -6 20 2 11 -1 20 -7 20 -5 0 -8 7 -4 15 3 8 2 15
-2 15 -4 0 -8 8 -9 18 -3 42 -9 69 -21 90 -7 12 -9 22 -4 22 5 0 7 13 4 30 -2
18 -9 27 -15 23 -6 -4 -8 0 -4 10 3 10 2 17 -4 17 -6 0 -7 5 -4 10 3 6 1 10
-4 10 -6 0 -10 3 -10 8 1 4 0 10 -1 15 -1 4 -3 13 -4 20 -1 6 -8 11 -16 9 -11
-2 -11 0 -1 11 9 12 8 16 -4 21 -9 3 -15 14 -13 23 2 11 -2 17 -11 15 -9 -2
-11 3 -7 13 3 9 -1 24 -10 32 -13 13 -13 17 -2 24 10 7 8 9 -6 9 -12 0 -16 5
-12 15 3 8 1 15 -5 15 -6 0 -9 7 -5 15 3 8 0 15 -7 15 -7 0 -13 10 -14 22 -1
11 -7 24 -14 28 -6 5 -8 13 -4 20 6 9 4 11 -5 5 -10 -6 -12 -4 -7 9 4 10 3 15
-3 11 -6 -3 -10 1 -10 9 0 9 -4 16 -10 16 -5 0 -10 7 -10 15 0 17 -18 52 -38
73 -7 8 -11 21 -8 28 3 8 0 13 -6 11 -7 -1 -12 4 -13 11 0 7 -6 17 -14 22 -8
4 -16 19 -18 32 -2 13 -8 25 -13 26 -6 2 -10 10 -10 17 0 7 -7 15 -15 19 -9 3
-12 12 -8 22 5 14 3 16 -11 11 -10 -4 -15 -3 -11 3 3 6 0 10 -7 10 -9 0 -9 3
2 10 11 7 11 10 2 10 -7 0 -10 5 -6 12 4 6 3 9 -2 5 -5 -3 -18 2 -29 10 -20
16 -20 16 0 9 17 -5 17 -4 -4 14 -13 11 -20 20 -16 20 3 0 -1 7 -9 16 -9 8
-13 20 -10 26 4 7 2 8 -4 4 -7 -4 -12 -1 -12 7 0 7 -13 28 -30 47 -16 18 -27
37 -24 41 3 5 -2 9 -10 9 -15 0 -21 12 -17 33 1 5 -3 6 -9 2 -5 -3 -10 -1 -10
5 0 6 -6 8 -12 4 -7 -4 -10 -4 -6 1 9 10 -15 57 -38 76 -16 12 -17 12 -9 -1 5
-9 5 -12 -1 -7 -5 5 -10 13 -10 18 -1 5 -2 14 -3 20 0 5 -4 8 -8 6 -8 -5 -34
17 -33 28 1 20 -2 24 -20 30 -11 3 -19 9 -19 13 3 20 -3 30 -22 35 -12 3 -18
10 -14 16 3 6 1 11 -5 11 -6 0 -8 4 -5 10 3 6 -1 7 -10 4 -9 -4 -15 -2 -13 3
2 6 -16 29 -40 52 -26 25 -40 46 -35 54 4 7 -2 5 -12 -3 -12 -10 -16 -11 -11
-2 5 9 -8 28 -37 57 -25 24 -43 46 -39 49 3 3 -2 6 -10 6 -9 0 -22 8 -29 17
-10 11 -10 14 -1 9 6 -4 12 -5 12 -2 0 3 -10 10 -21 17 -15 8 -19 8 -15 0 4
-6 2 -11 -3 -11 -6 0 -11 5 -11 11 0 6 -18 28 -41 50 -22 21 -37 39 -33 39 4
0 -1 7 -12 15 -10 8 -28 15 -38 15 -11 0 -16 3 -13 7 4 3 -2 13 -13 20 -11 8
-17 19 -14 25 4 7 2 8 -4 4 -7 -4 -12 -2 -12 4 0 7 -6 10 -13 7 -6 -2 -18 2
-25 9 -7 8 -10 14 -7 14 4 0 0 7 -9 15 -8 8 -19 15 -25 15 -6 0 -11 5 -11 10
0 6 -7 10 -16 10 -8 0 -12 5 -9 10 3 6 -1 10 -9 10 -9 0 -16 5 -16 10 0 6 -7
10 -15 10 -8 0 -15 4 -15 9 0 5 -9 11 -20 14 -11 3 -19 11 -18 19 2 8 -4 12
-15 10 -9 -2 -20 4 -23 13 -3 8 -12 15 -20 15 -8 0 -14 4 -14 8 0 5 -12 14
-26 20 -14 7 -22 17 -18 23 4 8 0 9 -15 4 -15 -5 -21 -2 -21 10 0 9 -4 14 -9
11 -5 -3 -11 1 -15 9 -3 8 -14 15 -25 15 -11 0 -23 5 -27 12 -5 7 -2 8 7 3 8
-5 11 -4 6 1 -5 5 -12 9 -15 10 -18 2 -49 19 -63 35 -12 14 -19 15 -27 7 -9
-9 -12 -8 -12 4 0 9 -5 20 -12 24 -7 5 -9 2 -4 -7 4 -8 -1 -4 -12 9 -11 12
-27 22 -36 22 -8 0 -20 8 -25 18 -6 9 -11 13 -11 7 0 -5 -4 -4 -9 3 -4 7 -17
14 -29 15 -11 0 -18 5 -16 9 3 4 0 8 -6 8 -6 0 -8 5 -4 13 5 7 0 6 -11 -3 -15
-12 -17 -12 -10 -1 6 11 4 13 -8 8 -9 -3 -19 -1 -23 5 -5 7 -2 8 7 3 8 -5 11
-4 6 0 -4 5 -17 10 -29 12 -12 2 -25 9 -29 15 -4 6 -14 8 -22 5 -12 -4 -14 -2
-10 10 4 10 2 14 -5 9 -6 -3 -14 -1 -17 5 -4 5 -13 8 -21 5 -8 -3 -17 1 -21
10 -3 8 -11 13 -17 11 -14 -6 -37 18 -28 29 4 4 -1 4 -12 0 -12 -4 -24 0 -33
11 -8 10 -12 12 -8 6 3 -7 1 -13 -4 -13 -6 0 -11 5 -11 10 0 6 -9 10 -21 10
-11 0 -18 4 -15 8 2 4 -5 9 -16 9 -11 1 -27 10 -35 20 -8 10 -12 12 -8 6 3 -7
1 -13 -4 -13 -6 0 -11 5 -11 11 0 6 -7 9 -15 5 -8 -3 -15 -1 -15 4 0 6 -9 10
-20 10 -11 0 -23 6 -26 13 -3 8 -15 13 -27 12 -12 -2 -30 7 -40 19 -16 20 -17
20 -10 1 6 -19 6 -19 -14 -2 -11 9 -23 14 -26 10 -4 -3 -7 -1 -7 7 0 10 -3 10
-14 1 -17 -14 -31 2 -20 22 5 8 2 8 -9 -2 -10 -7 -17 -9 -17 -3 0 6 -8 9 -17
8 -10 -2 -21 1 -24 6 -3 5 -20 10 -37 11 -18 1 -32 6 -32 11 0 4 -6 6 -14 3
-8 -3 -17 0 -20 8 -3 8 -16 12 -30 11 -14 -2 -26 0 -26 5 0 5 -7 5 -17 2 -12
-5 -14 -3 -8 7 6 10 4 12 -10 6 -11 -4 -22 -2 -27 6 -6 11 -8 11 -8 0 0 -10
-4 -10 -22 0 -21 11 -35 15 -75 20 -7 1 -13 5 -13 10 0 4 -5 8 -11 8 -5 0 -7
-6 -3 -12 6 -10 4 -10 -7 0 -7 6 -23 12 -36 12 -13 0 -23 6 -23 13 0 7 -3 8
-8 2 -9 -13 -32 -17 -32 -6 0 5 -7 12 -16 15 -8 3 -13 2 -10 -3 4 -5 -3 -7
-14 -4 -11 3 -17 10 -14 15 5 7 1 7 -11 1 -12 -7 -26 -6 -44 3 -17 9 -27 10
-30 3 -2 -6 -12 -3 -24 8 -11 10 -17 12 -13 6 4 -7 2 -13 -3 -13 -6 0 -11 6
-11 13 0 8 -4 7 -10 -3 -6 -10 -10 -11 -10 -3 0 13 -26 13 -47 0 -9 -5 -11 -3
-7 6 4 11 -4 14 -35 12 -23 -1 -41 1 -41 5 0 4 -8 7 -17 7 -94 0 -124 4 -117
16 5 8 2 8 -9 -2 -14 -11 -17 -11 -17 0 0 11 -2 11 -10 -1 -9 -13 -10 -13 -10
0 0 12 -2 12 -9 1 -6 -9 -10 -10 -16 -2 -5 9 -10 9 -21 0 -11 -9 -14 -8 -14 2
0 11 -2 11 -10 -1 -7 -11 -10 -11 -10 -2 0 7 -4 10 -10 7 -5 -3 -10 0 -10 7 0
9 -3 9 -10 -2 -7 -11 -10 -11 -10 -2 0 10 -5 10 -20 2 -14 -7 -20 -7 -20 0 0
5 -5 10 -11 10 -5 0 -7 -5 -3 -12 5 -7 3 -8 -5 -3 -19 11 -90 11 -95 0 -3 -5
-5 -4 -5 3 -1 9 -6 10 -20 2 -14 -7 -21 -6 -24 3 -4 9 -8 9 -15 -2 -7 -9 -12
-10 -16 -2 -5 8 -13 8 -27 1 -10 -6 -19 -7 -19 -3 0 4 -16 8 -35 8 -19 0 -35
-4 -35 -10 0 -5 -5 -3 -10 5 -7 11 -10 11 -10 2 0 -7 -5 -10 -11 -7 -17 11
-89 11 -89 0 0 -5 -4 -5 -8 2 -5 8 -13 8 -25 2z m1493 -175 c0 -8 -19 -13 -24
-6 -3 5 1 9 9 9 8 0 15 -2 15 -3z m-4010 -858 c0 -2 -7 -7 -16 -10 -8 -3 -12
-2 -9 4 6 10 25 14 25 6z m-160 -140 c0 -2 -8 -10 -17 -17 -16 -13 -17 -12 -4
4 13 16 21 21 21 13z"/>
</g>
</svg>
